<svg version="1.1" xmlns="http://www.w3.org/2000/svg" viewBox="0 0 728 281" width="1456" height="562">
  <!-- svg-source:excalidraw -->
  
  <defs>
    <style class="style-fonts">
      @font-face {
        font-family: "Virgil";
        src: url("https://excalidraw.com/Virgil.woff2");
      }
      @font-face {
        font-family: "Cascadia";
        src: url("https://excalidraw.com/Cascadia.woff2");
      }
      @font-face {
        font-family: "Assistant";
        src: url("https://excalidraw.com/Assistant-Regular.woff2");
      }
    </style>
    
  </defs>
  <rect x="0" y="0" width="728" height="281" fill="#ffffff"></rect><g stroke-linecap="round" transform="translate(174 107) rotate(270 95 15)"><path d="M7.5 0 C51.27 0, 93.07 1.93, 182.5 0 M7.5 0 C59.59 1.17, 112.8 0.85, 182.5 0 M182.5 0 C185.84 -0.09, 189.71 2.81, 190 7.5 M182.5 0 C187.06 0.5, 188.22 4.62, 190 7.5 M190 7.5 C190.89 11.38, 191.13 18.3, 190 22.5 M190 7.5 C190.55 11.46, 190.4 14.72, 190 22.5 M190 22.5 C190.58 27.13, 187.48 28.65, 182.5 30 M190 22.5 C191.96 27.53, 187.38 28.82, 182.5 30 M182.5 30 C123.67 30.43, 66.12 30.72, 7.5 30 M182.5 30 C121.86 30.66, 61.53 30.09, 7.5 30 M7.5 30 C1.04 31.71, -1.77 25.98, 0 22.5 M7.5 30 C0.33 32.24, -0.65 29.4, 0 22.5 M0 22.5 C0.78 17.46, -1.44 14.18, 0 7.5 M0 22.5 C0.74 17.45, -0.41 12.29, 0 7.5 M0 7.5 C-1.58 1.32, 1.68 1.89, 7.5 0 M0 7.5 C-0.91 3.18, 2.78 -0.66, 7.5 0" stroke="#1e1e1e" stroke-width="1" fill="none"></path></g><g transform="translate(191.06400299072266 112) rotate(270 77.93599700927734 10)"><text x="77.93599700927734" y="0" font-family="Virgil, Segoe UI Emoji" font-size="16px" fill="#1e1e1e" text-anchor="middle" style="white-space: pre;" direction="ltr" dominant-baseline="text-before-edge">self-attention layer</text></g><g stroke-linecap="round" transform="translate(244 17) rotate(0 49 105.5)"><path d="M24.5 0 C42.88 -1.05, 61.32 -1.2, 73.5 0 M24.5 0 C38.78 0.14, 52.68 0.85, 73.5 0 M73.5 0 C90.19 0.64, 99.57 9.29, 98 24.5 M73.5 0 C88.47 1.66, 99.94 7.22, 98 24.5 M98 24.5 C99 82.25, 97.34 138.87, 98 186.5 M98 24.5 C98.84 70.1, 97.93 115.17, 98 186.5 M98 186.5 C98.54 202.01, 91.72 209.39, 73.5 211 M98 186.5 C96.6 200.6, 88.77 212.1, 73.5 211 M73.5 211 C58.82 212.49, 43.08 209.64, 24.5 211 M73.5 211 C53.68 211.6, 35.46 211.46, 24.5 211 M24.5 211 C7.62 212.46, -0.23 204.02, 0 186.5 M24.5 211 C6.71 208.97, -0.22 204.19, 0 186.5 M0 186.5 C1.35 137.2, 1.93 88.53, 0 24.5 M0 186.5 C0.26 147.73, 0.78 108.08, 0 24.5 M0 24.5 C0.15 7.23, 9.47 -1.98, 24.5 0 M0 24.5 C-1.26 6.15, 9.8 -1.39, 24.5 0" stroke="#2f9e44" stroke-width="2" fill="none"></path></g><g stroke-linecap="round" transform="translate(303 106.5) rotate(270 95 15)"><path d="M7.5 0 C42.16 -0.34, 79.4 1.03, 182.5 0 M7.5 0 C61.9 0.54, 118.02 -0.06, 182.5 0 M182.5 0 C189.07 1.13, 188.81 3.95, 190 7.5 M182.5 0 C189.44 -0.95, 191.18 3.63, 190 7.5 M190 7.5 C188.93 13.39, 189.74 18.39, 190 22.5 M190 7.5 C190.09 10.61, 190.33 14.17, 190 22.5 M190 22.5 C191.89 25.89, 186.28 28.05, 182.5 30 M190 22.5 C188.93 28.6, 187.45 30.93, 182.5 30 M182.5 30 C125.45 29.76, 72.57 29.45, 7.5 30 M182.5 30 C142.99 32.54, 103.76 32.44, 7.5 30 M7.5 30 C2.27 31.19, -1.26 25.73, 0 22.5 M7.5 30 C2.28 31.36, -0.06 26.87, 0 22.5 M0 22.5 C1.04 15.34, -0.95 9.95, 0 7.5 M0 22.5 C0.15 16.37, 0.12 10.31, 0 7.5 M0 7.5 C1.3 0.52, 1.4 -1.75, 7.5 0 M0 7.5 C1.63 1.11, 1.25 1.58, 7.5 0" stroke="#1e1e1e" stroke-width="1" fill="none"></path></g><g transform="translate(320.06400299072266 111.5) rotate(270 77.93599700927734 10)"><text x="77.93599700927734" y="0" font-family="Virgil, Segoe UI Emoji" font-size="16px" fill="#1e1e1e" text-anchor="middle" style="white-space: pre;" direction="ltr" dominant-baseline="text-before-edge">self-attention layer</text></g><g stroke-linecap="round" transform="translate(373 16.5) rotate(0 49 105.5)"><path d="M24.5 0 C40.1 0.74, 52.65 1.95, 73.5 0 M24.5 0 C42.81 -0.77, 59.94 0.14, 73.5 0 M73.5 0 C91.1 0.21, 98.86 6.72, 98 24.5 M73.5 0 C90.5 -0.43, 97.98 6.62, 98 24.5 M98 24.5 C97 87.47, 97.2 151.25, 98 186.5 M98 24.5 C96.55 60.52, 96.99 96, 98 186.5 M98 186.5 C98.38 202.75, 91.23 209.77, 73.5 211 M98 186.5 C96.32 204.79, 87.8 209.26, 73.5 211 M73.5 211 C65.08 210.31, 54.81 210.63, 24.5 211 M73.5 211 C55.79 211.16, 38.24 210.29, 24.5 211 M24.5 211 C10.13 211.9, -1.1 204.31, 0 186.5 M24.5 211 C6.35 209.65, -0.94 205.01, 0 186.5 M0 186.5 C-1.06 144.49, -1.42 103.47, 0 24.5 M0 186.5 C1.6 153.37, 0.35 122.13, 0 24.5 M0 24.5 C-0.55 8.22, 9.62 -1.17, 24.5 0 M0 24.5 C-2.21 9.66, 10.01 0.26, 24.5 0" stroke="#2f9e44" stroke-width="2" fill="none"></path></g><g stroke-linecap="round" transform="translate(533 108.5) rotate(270 95 15)"><path d="M7.5 0 C47.13 1.25, 86.6 -1.5, 182.5 0 M7.5 0 C73.16 1.21, 138.43 0.83, 182.5 0 M182.5 0 C188.36 -1.45, 190.58 2.13, 190 7.5 M182.5 0 C187.48 -1.55, 191.96 2.53, 190 7.5 M190 7.5 C189.31 13.33, 188.71 15.43, 190 22.5 M190 7.5 C189.91 10.84, 190.07 13.55, 190 22.5 M190 22.5 C191.39 26.27, 186.04 31.71, 182.5 30 M190 22.5 C187.97 25.76, 185.33 32.24, 182.5 30 M182.5 30 C136.39 29.29, 88.54 28.26, 7.5 30 M182.5 30 C145.44 30.76, 109.41 31.48, 7.5 30 M7.5 30 C1.4 31.48, -1.58 26.32, 0 22.5 M7.5 30 C1.56 32.17, -0.91 28.18, 0 22.5 M0 22.5 C-0.66 18.8, -1.45 12.32, 0 7.5 M0 22.5 C-0.51 19.83, -0.31 16.15, 0 7.5 M0 7.5 C1.45 1.33, 0.58 1.3, 7.5 0 M0 7.5 C1.84 2.76, 2.25 -0.9, 7.5 0" stroke="#1e1e1e" stroke-width="1" fill="none"></path></g><g transform="translate(550.0640029907227 113.5) rotate(270 77.93599700927734 10)"><text x="77.93599700927734" y="0" font-family="Virgil, Segoe UI Emoji" font-size="16px" fill="#1e1e1e" text-anchor="middle" style="white-space: pre;" direction="ltr" dominant-baseline="text-before-edge">self-attention layer</text></g><g stroke-linecap="round" transform="translate(603 18.5) rotate(0 49 105.5)"><path d="M24.5 0 C44.31 1.02, 62.37 0.6, 73.5 0 M24.5 0 C35.64 -0.58, 47.64 0.1, 73.5 0 M73.5 0 C89.73 -1.02, 98.54 7.35, 98 24.5 M73.5 0 C92 -1.85, 96.6 5.93, 98 24.5 M98 24.5 C99.58 65.97, 98.68 108.07, 98 186.5 M98 24.5 C95.94 62.4, 95.88 102.79, 98 186.5 M98 186.5 C97.44 204.49, 89.29 212.46, 73.5 211 M98 186.5 C97.73 204.2, 88.38 208.97, 73.5 211 M73.5 211 C58.71 212.95, 45.92 209.88, 24.5 211 M73.5 211 C54.76 211.66, 36.45 211.01, 24.5 211 M24.5 211 C8.41 210.42, 0.15 201.89, 0 186.5 M24.5 211 C9.66 208.72, -1.26 200.82, 0 186.5 M0 186.5 C2.35 125.86, 1.03 67.77, 0 24.5 M0 186.5 C2.36 147.47, 1.45 107.81, 0 24.5 M0 24.5 C0.25 6.5, 7.04 -0.31, 24.5 0 M0 24.5 C0.13 9.44, 9.83 2.02, 24.5 0" stroke="#2f9e44" stroke-width="2" fill="none"></path></g><g stroke-linecap="round"><g transform="translate(486 119) rotate(0 54 0.5)"><path d="M0.76 0.13 C18.74 0.05, 90.58 0.02, 108.51 0.13" stroke="#1e1e1e" stroke-width="2.5" fill="none" stroke-dasharray="1.5 8"></path></g></g><mask></mask><g stroke-linecap="round" transform="translate(178 10) rotate(0 270 113)"><path d="M32 0 C204.36 -0.64, 377.83 -0.9, 508 0 M32 0 C142.71 -0.25, 253.59 -0.21, 508 0 M508 0 C531.22 -1.61, 538.78 8.72, 540 32 M508 0 C528.27 1.1, 539.95 11.59, 540 32 M540 32 C538.7 82.21, 541.63 133.58, 540 194 M540 32 C538.19 69.14, 538.2 105.37, 540 194 M540 194 C539.77 216.52, 528.07 224.23, 508 226 M540 194 C539.78 216.69, 529.28 225.37, 508 226 M508 226 C319.19 224.15, 128.57 224.48, 32 226 M508 226 C320.26 226.5, 132.45 226.42, 32 226 M32 226 C11.97 224.02, -1.1 213.58, 0 194 M32 226 C12.3 224.61, -1.25 216.91, 0 194 M0 194 C-1.21 147.91, 1.26 107.27, 0 32 M0 194 C0.3 142.72, -0.39 92.96, 0 32 M0 32 C0.11 11.78, 12.11 1.75, 32 0 M0 32 C1.96 10.34, 12.32 1.92, 32 0" stroke="#f08c00" stroke-width="4" fill="none"></path></g><g stroke-linecap="round"><g transform="translate(347 123) rotate(0 11.5 -0.5)"><path d="M0.16 -0.1 C3.95 -0.26, 19.11 -1.22, 23 -1.37 M-0.42 -0.63 C3.28 -0.7, 18.6 -0.9, 22.56 -0.86" stroke="#1e1e1e" stroke-width="1" fill="none"></path></g><g transform="translate(347 123) rotate(0 11.5 -0.5)"><path d="M11.76 3.11 C15.37 1.73, 18.79 0.86, 22.56 -0.86 M11.76 3.11 C15.09 1.82, 18.54 0.51, 22.56 -0.86" stroke="#1e1e1e" stroke-width="1" fill="none"></path></g><g transform="translate(347 123) rotate(0 11.5 -0.5)"><path d="M11.73 -4.76 C15.32 -3.45, 18.75 -1.61, 22.56 -0.86 M11.73 -4.76 C15.07 -3.68, 18.53 -2.62, 22.56 -0.86" stroke="#1e1e1e" stroke-width="1" fill="none"></path></g></g><mask></mask><g stroke-linecap="round" transform="translate(111 107) rotate(270 95 15)"><path d="M7.5 0 C63.74 1.72, 122.71 -0.09, 182.5 0 M7.5 0 C51.98 -0.09, 93.96 -0.25, 182.5 0 M182.5 0 C186.57 0.95, 189.96 3.31, 190 7.5 M182.5 0 C187.94 -0.1, 191.6 1.09, 190 7.5 M190 7.5 C188.99 9.49, 191.59 13.89, 190 22.5 M190 7.5 C189.87 13.69, 189.48 18.32, 190 22.5 M190 22.5 C189.81 28.68, 187.45 29.45, 182.5 30 M190 22.5 C192.25 28.54, 186.23 31.7, 182.5 30 M182.5 30 C145.73 28.49, 105.77 29.53, 7.5 30 M182.5 30 C135.69 28.19, 87.04 28.3, 7.5 30 M7.5 30 C3.92 28.79, -1.09 28.87, 0 22.5 M7.5 30 C1.87 30.06, 1.67 26.16, 0 22.5 M0 22.5 C0.07 19.28, -0.68 16.57, 0 7.5 M0 22.5 C0.13 19.67, 0.63 16.66, 0 7.5 M0 7.5 C1.7 2.22, 3.94 1.67, 7.5 0 M0 7.5 C-0.75 3.07, 3.18 1.01, 7.5 0" stroke="#1e1e1e" stroke-width="1" fill="none"></path></g><g transform="translate(145.4960060119629 112) rotate(270 60.50399398803711 10)"><text x="60.50399398803711" y="0" font-family="Virgil, Segoe UI Emoji" font-size="16px" fill="#1e1e1e" text-anchor="middle" style="white-space: pre;" direction="ltr" dominant-baseline="text-before-edge">Embedding layer</text></g><g stroke-linecap="round"><g transform="translate(224 122.54545454545439) rotate(0 7.5 0.2272727272728048)"><path d="M-0.03 -0.28 C2.42 -0.24, 12.56 0.18, 15.15 0.23 M-0.71 0.76 C1.64 0.87, 12.1 0.88, 14.79 0.81" stroke="#1e1e1e" stroke-width="1" fill="none"></path></g><g transform="translate(224 122.54545454545439) rotate(0 7.5 0.2272727272728048)"><path d="M7.77 3.44 C10.28 2.53, 13.03 1.77, 14.79 0.81 M7.77 3.44 C9.23 2.99, 10.85 2.4, 14.79 0.81" stroke="#1e1e1e" stroke-width="1" fill="none"></path></g><g transform="translate(224 122.54545454545439) rotate(0 7.5 0.2272727272728048)"><path d="M7.72 -1.69 C10.25 -0.62, 13.02 0.59, 14.79 0.81 M7.72 -1.69 C9.18 -1.02, 10.81 -0.48, 14.79 0.81" stroke="#1e1e1e" stroke-width="1" fill="none"></path></g></g><mask></mask><g transform="translate(408 251) rotate(0 31.43199920654297 10)"><text x="0" y="0" font-family="Virgil, Segoe UI Emoji" font-size="16px" fill="#1e1e1e" text-anchor="start" style="white-space: pre;" direction="ltr" dominant-baseline="text-before-edge">Decoder</text></g><g stroke-linecap="round" transform="translate(141 35) rotate(0 7.5 7)"><path d="M3.5 0 C5.62 0, 7.75 0, 11.5 0 C13.83 0, 15 1.17, 15 3.5 C15 6.15, 15 8.8, 15 10.5 C15 12.83, 13.83 14, 11.5 14 C9.77 14, 8.05 14, 3.5 14 C1.17 14, 0 12.83, 0 10.5 C0 8.6, 0 6.7, 0 3.5 C0 1.17, 1.17 0, 3.5 0" stroke="none" stroke-width="0" fill="#b2f2bb"></path><path d="M3.5 0 C6.05 0, 8.6 0, 11.5 0 M3.5 0 C5.29 0, 7.09 0, 11.5 0 M11.5 0 C13.83 0, 15 1.17, 15 3.5 M11.5 0 C13.83 0, 15 1.17, 15 3.5 M15 3.5 C15 6.29, 15 9.07, 15 10.5 M15 3.5 C15 6.26, 15 9.02, 15 10.5 M15 10.5 C15 12.83, 13.83 14, 11.5 14 M15 10.5 C15 12.83, 13.83 14, 11.5 14 M11.5 14 C9.32 14, 7.14 14, 3.5 14 M11.5 14 C9.01 14, 6.52 14, 3.5 14 M3.5 14 C1.17 14, 0 12.83, 0 10.5 M3.5 14 C1.17 14, 0 12.83, 0 10.5 M0 10.5 C0 8.63, 0 6.76, 0 3.5 M0 10.5 C0 7.71, 0 4.91, 0 3.5 M0 3.5 C0 1.17, 1.17 0, 3.5 0 M0 3.5 C0 1.17, 1.17 0, 3.5 0" stroke="#1e1e1e" stroke-width="2" fill="none"></path></g><g stroke-linecap="round" transform="translate(140.5 57) rotate(0 7.5 7)"><path d="M3.5 0 C6.45 0, 9.39 0, 11.5 0 C13.83 0, 15 1.17, 15 3.5 C15 5.87, 15 8.25, 15 10.5 C15 12.83, 13.83 14, 11.5 14 C8.88 14, 6.27 14, 3.5 14 C1.17 14, 0 12.83, 0 10.5 C0 8.32, 0 6.13, 0 3.5 C0 1.17, 1.17 0, 3.5 0" stroke="none" stroke-width="0" fill="#b2f2bb"></path><path d="M3.5 0 C6.46 0, 9.41 0, 11.5 0 M3.5 0 C6.68 0, 9.86 0, 11.5 0 M11.5 0 C13.83 0, 15 1.17, 15 3.5 M11.5 0 C13.83 0, 15 1.17, 15 3.5 M15 3.5 C15 5.21, 15 6.93, 15 10.5 M15 3.5 C15 5.81, 15 8.12, 15 10.5 M15 10.5 C15 12.83, 13.83 14, 11.5 14 M15 10.5 C15 12.83, 13.83 14, 11.5 14 M11.5 14 C8.52 14, 5.54 14, 3.5 14 M11.5 14 C9.41 14, 7.32 14, 3.5 14 M3.5 14 C1.17 14, 0 12.83, 0 10.5 M3.5 14 C1.17 14, 0 12.83, 0 10.5 M0 10.5 C0 8.19, 0 5.89, 0 3.5 M0 10.5 C0 7.75, 0 5, 0 3.5 M0 3.5 C0 1.17, 1.17 0, 3.5 0 M0 3.5 C0 1.17, 1.17 0, 3.5 0" stroke="#1e1e1e" stroke-width="2" fill="none"></path></g><g stroke-linecap="round" transform="translate(140.5 57) rotate(0 7.5 7)"><path d="M3.5 0 C5.65 0, 7.79 0, 11.5 0 C13.83 0, 15 1.17, 15 3.5 C15 6, 15 8.5, 15 10.5 C15 12.83, 13.83 14, 11.5 14 C9.81 14, 8.11 14, 3.5 14 C1.17 14, 0 12.83, 0 10.5 C0 8.31, 0 6.12, 0 3.5 C0 1.17, 1.17 0, 3.5 0" stroke="none" stroke-width="0" fill="#b2f2bb"></path><path d="M3.5 0 C5.32 0, 7.13 0, 11.5 0 M3.5 0 C6.56 0, 9.62 0, 11.5 0 M11.5 0 C13.83 0, 15 1.17, 15 3.5 M11.5 0 C13.83 0, 15 1.17, 15 3.5 M15 3.5 C15 5.05, 15 6.59, 15 10.5 M15 3.5 C15 5.4, 15 7.3, 15 10.5 M15 10.5 C15 12.83, 13.83 14, 11.5 14 M15 10.5 C15 12.83, 13.83 14, 11.5 14 M11.5 14 C9.87 14, 8.24 14, 3.5 14 M11.5 14 C9.77 14, 8.04 14, 3.5 14 M3.5 14 C1.17 14, 0 12.83, 0 10.5 M3.5 14 C1.17 14, 0 12.83, 0 10.5 M0 10.5 C0 7.98, 0 5.46, 0 3.5 M0 10.5 C0 8.12, 0 5.73, 0 3.5 M0 3.5 C0 1.17, 1.17 0, 3.5 0 M0 3.5 C0 1.17, 1.17 0, 3.5 0" stroke="#1e1e1e" stroke-width="2" fill="none"></path></g><g stroke-linecap="round" transform="translate(140.5 80) rotate(0 7.5 7)"><path d="M3.5 0 C6.28 0, 9.06 0, 11.5 0 C13.83 0, 15 1.17, 15 3.5 C15 4.92, 15 6.33, 15 10.5 C15 12.83, 13.83 14, 11.5 14 C8.78 14, 6.07 14, 3.5 14 C1.17 14, 0 12.83, 0 10.5 C0 7.72, 0 4.93, 0 3.5 C0 1.17, 1.17 0, 3.5 0" stroke="none" stroke-width="0" fill="#b2f2bb"></path><path d="M3.5 0 C5.19 0, 6.89 0, 11.5 0 M3.5 0 C6.48 0, 9.47 0, 11.5 0 M11.5 0 C13.83 0, 15 1.17, 15 3.5 M11.5 0 C13.83 0, 15 1.17, 15 3.5 M15 3.5 C15 5.31, 15 7.13, 15 10.5 M15 3.5 C15 5.27, 15 7.04, 15 10.5 M15 10.5 C15 12.83, 13.83 14, 11.5 14 M15 10.5 C15 12.83, 13.83 14, 11.5 14 M11.5 14 C8.46 14, 5.42 14, 3.5 14 M11.5 14 C9.23 14, 6.95 14, 3.5 14 M3.5 14 C1.17 14, 0 12.83, 0 10.5 M3.5 14 C1.17 14, 0 12.83, 0 10.5 M0 10.5 C0 8.25, 0 5.99, 0 3.5 M0 10.5 C0 8.73, 0 6.96, 0 3.5 M0 3.5 C0 1.17, 1.17 0, 3.5 0 M0 3.5 C0 1.17, 1.17 0, 3.5 0" stroke="#1e1e1e" stroke-width="2" fill="none"></path></g><g stroke-linecap="round" transform="translate(140.5 104) rotate(0 7.5 7)"><path d="M3.5 0 C6.49 0, 9.49 0, 11.5 0 C13.83 0, 15 1.17, 15 3.5 C15 6.16, 15 8.82, 15 10.5 C15 12.83, 13.83 14, 11.5 14 C8.52 14, 5.53 14, 3.5 14 C1.17 14, 0 12.83, 0 10.5 C0 8.27, 0 6.03, 0 3.5 C0 1.17, 1.17 0, 3.5 0" stroke="none" stroke-width="0" fill="#b2f2bb"></path><path d="M3.5 0 C5.15 0, 6.79 0, 11.5 0 M3.5 0 C6.38 0, 9.25 0, 11.5 0 M11.5 0 C13.83 0, 15 1.17, 15 3.5 M11.5 0 C13.83 0, 15 1.17, 15 3.5 M15 3.5 C15 5.32, 15 7.14, 15 10.5 M15 3.5 C15 4.91, 15 6.31, 15 10.5 M15 10.5 C15 12.83, 13.83 14, 11.5 14 M15 10.5 C15 12.83, 13.83 14, 11.5 14 M11.5 14 C9.19 14, 6.87 14, 3.5 14 M11.5 14 C8.66 14, 5.81 14, 3.5 14 M3.5 14 C1.17 14, 0 12.83, 0 10.5 M3.5 14 C1.17 14, 0 12.83, 0 10.5 M0 10.5 C0 7.98, 0 5.46, 0 3.5 M0 10.5 C0 8.98, 0 7.45, 0 3.5 M0 3.5 C0 1.17, 1.17 0, 3.5 0 M0 3.5 C0 1.17, 1.17 0, 3.5 0" stroke="#1e1e1e" stroke-width="2" fill="none"></path></g><g stroke-linecap="round" transform="translate(140.5 126) rotate(0 7.5 7)"><path d="M3.5 0 C6.09 0, 8.68 0, 11.5 0 C13.83 0, 15 1.17, 15 3.5 C15 4.99, 15 6.48, 15 10.5 C15 12.83, 13.83 14, 11.5 14 C8.41 14, 5.32 14, 3.5 14 C1.17 14, 0 12.83, 0 10.5 C0 8.12, 0 5.75, 0 3.5 C0 1.17, 1.17 0, 3.5 0" stroke="none" stroke-width="0" fill="#ffc9c9"></path><path d="M3.5 0 C5.67 0, 7.85 0, 11.5 0 M3.5 0 C5.19 0, 6.89 0, 11.5 0 M11.5 0 C13.83 0, 15 1.17, 15 3.5 M11.5 0 C13.83 0, 15 1.17, 15 3.5 M15 3.5 C15 5.68, 15 7.87, 15 10.5 M15 3.5 C15 4.99, 15 6.47, 15 10.5 M15 10.5 C15 12.83, 13.83 14, 11.5 14 M15 10.5 C15 12.83, 13.83 14, 11.5 14 M11.5 14 C9 14, 6.5 14, 3.5 14 M11.5 14 C8.4 14, 5.3 14, 3.5 14 M3.5 14 C1.17 14, 0 12.83, 0 10.5 M3.5 14 C1.17 14, 0 12.83, 0 10.5 M0 10.5 C0 8.98, 0 7.45, 0 3.5 M0 10.5 C0 8.52, 0 6.53, 0 3.5 M0 3.5 C0 1.17, 1.17 0, 3.5 0 M0 3.5 C0 1.17, 1.17 0, 3.5 0" stroke="#1e1e1e" stroke-width="2" fill="none"></path></g><g stroke-linecap="round" transform="translate(140.5 148) rotate(0 7.5 7)"><path d="M3.5 0 C6.66 0, 9.82 0, 11.5 0 C13.83 0, 15 1.17, 15 3.5 C15 5.73, 15 7.95, 15 10.5 C15 12.83, 13.83 14, 11.5 14 C9.23 14, 6.95 14, 3.5 14 C1.17 14, 0 12.83, 0 10.5 C0 8.31, 0 6.13, 0 3.5 C0 1.17, 1.17 0, 3.5 0" stroke="none" stroke-width="0" fill="#ffc9c9"></path><path d="M3.5 0 C5.68 0, 7.86 0, 11.5 0 M3.5 0 C6.37 0, 9.24 0, 11.5 0 M11.5 0 C13.83 0, 15 1.17, 15 3.5 M11.5 0 C13.83 0, 15 1.17, 15 3.5 M15 3.5 C15 5.65, 15 7.81, 15 10.5 M15 3.5 C15 5.18, 15 6.85, 15 10.5 M15 10.5 C15 12.83, 13.83 14, 11.5 14 M15 10.5 C15 12.83, 13.83 14, 11.5 14 M11.5 14 C9.55 14, 7.6 14, 3.5 14 M11.5 14 C9.21 14, 6.93 14, 3.5 14 M3.5 14 C1.17 14, 0 12.83, 0 10.5 M3.5 14 C1.17 14, 0 12.83, 0 10.5 M0 10.5 C0 8.7, 0 6.91, 0 3.5 M0 10.5 C0 8.12, 0 5.75, 0 3.5 M0 3.5 C0 1.17, 1.17 0, 3.5 0 M0 3.5 C0 1.17, 1.17 0, 3.5 0" stroke="#1e1e1e" stroke-width="2" fill="none"></path></g><g stroke-linecap="round" transform="translate(140.5 169) rotate(0 7.5 7)"><path d="M3.5 0 C5.34 0, 7.19 0, 11.5 0 C13.83 0, 15 1.17, 15 3.5 C15 5.56, 15 7.63, 15 10.5 C15 12.83, 13.83 14, 11.5 14 C9.73 14, 7.95 14, 3.5 14 C1.17 14, 0 12.83, 0 10.5 C0 7.95, 0 5.41, 0 3.5 C0 1.17, 1.17 0, 3.5 0" stroke="none" stroke-width="0" fill="#ffc9c9"></path><path d="M3.5 0 C5.81 0, 8.12 0, 11.5 0 M3.5 0 C5.68 0, 7.86 0, 11.5 0 M11.5 0 C13.83 0, 15 1.17, 15 3.5 M11.5 0 C13.83 0, 15 1.17, 15 3.5 M15 3.5 C15 6.06, 15 8.61, 15 10.5 M15 3.5 C15 6.08, 15 8.66, 15 10.5 M15 10.5 C15 12.83, 13.83 14, 11.5 14 M15 10.5 C15 12.83, 13.83 14, 11.5 14 M11.5 14 C9.05 14, 6.61 14, 3.5 14 M11.5 14 C8.43 14, 5.36 14, 3.5 14 M3.5 14 C1.17 14, 0 12.83, 0 10.5 M3.5 14 C1.17 14, 0 12.83, 0 10.5 M0 10.5 C0 8.57, 0 6.64, 0 3.5 M0 10.5 C0 7.71, 0 4.92, 0 3.5 M0 3.5 C0 1.17, 1.17 0, 3.5 0 M0 3.5 C0 1.17, 1.17 0, 3.5 0" stroke="#1e1e1e" stroke-width="2" fill="none"></path></g><g stroke-linecap="round" transform="translate(140.5 194) rotate(0 7.5 7)"><path d="M3.5 0 C6.17 0, 8.84 0, 11.5 0 C13.83 0, 15 1.17, 15 3.5 C15 4.9, 15 6.3, 15 10.5 C15 12.83, 13.83 14, 11.5 14 C9.73 14, 7.95 14, 3.5 14 C1.17 14, 0 12.83, 0 10.5 C0 7.89, 0 5.27, 0 3.5 C0 1.17, 1.17 0, 3.5 0" stroke="none" stroke-width="0" fill="#ffc9c9"></path><path d="M3.5 0 C5.39 0, 7.29 0, 11.5 0 M3.5 0 C6.26 0, 9.02 0, 11.5 0 M11.5 0 C13.83 0, 15 1.17, 15 3.5 M11.5 0 C13.83 0, 15 1.17, 15 3.5 M15 3.5 C15 5.22, 15 6.93, 15 10.5 M15 3.5 C15 5.62, 15 7.73, 15 10.5 M15 10.5 C15 12.83, 13.83 14, 11.5 14 M15 10.5 C15 12.83, 13.83 14, 11.5 14 M11.5 14 C8.52 14, 5.54 14, 3.5 14 M11.5 14 C8.9 14, 6.31 14, 3.5 14 M3.5 14 C1.17 14, 0 12.83, 0 10.5 M3.5 14 C1.17 14, 0 12.83, 0 10.5 M0 10.5 C0 8.2, 0 5.9, 0 3.5 M0 10.5 C0 8.57, 0 6.65, 0 3.5 M0 3.5 C0 1.17, 1.17 0, 3.5 0 M0 3.5 C0 1.17, 1.17 0, 3.5 0" stroke="#1e1e1e" stroke-width="2" fill="none"></path></g><g stroke-linecap="round" transform="translate(20 38) rotate(0 30 30)"><path d="M15 0 C25.19 0, 35.37 0, 45 0 C55 0, 60 5, 60 15 C60 26.93, 60 38.85, 60 45 C60 55, 55 60, 45 60 C35.69 60, 26.38 60, 15 60 C5 60, 0 55, 0 45 C0 37, 0 28.99, 0 15 C0 5, 5 0, 15 0" stroke="none" stroke-width="0" fill="#eaddd7"></path><path d="M15 0 C22.78 0, 30.55 0, 45 0 M15 0 C22.59 0, 30.18 0, 45 0 M45 0 C55 0, 60 5, 60 15 M45 0 C55 0, 60 5, 60 15 M60 15 C60 26.4, 60 37.81, 60 45 M60 15 C60 23.53, 60 32.06, 60 45 M60 45 C60 55, 55 60, 45 60 M60 45 C60 55, 55 60, 45 60 M45 60 C35.34 60, 25.68 60, 15 60 M45 60 C37.41 60, 29.83 60, 15 60 M15 60 C5 60, 0 55, 0 45 M15 60 C5 60, 0 55, 0 45 M0 45 C0 34.58, 0 24.17, 0 15 M0 45 C0 34.82, 0 24.65, 0 15 M0 15 C0 5, 5 0, 15 0 M0 15 C0 5, 5 0, 15 0" stroke="#1e1e1e" stroke-width="2" fill="none"></path></g><g transform="translate(26.856000900268555 58) rotate(0 23.143999099731445 10)"><text x="23.143999099731445" y="0" font-family="Virgil, Segoe UI Emoji" font-size="16px" fill="#1e1e1e" text-anchor="middle" style="white-space: pre;" direction="ltr" dominant-baseline="text-before-edge">Image</text></g><g transform="translate(10 159) rotate(0 37.07200241088867 10)"><text x="0" y="0" font-family="Virgil, Segoe UI Emoji" font-size="16px" fill="#1e1e1e" text-anchor="start" style="white-space: pre;" direction="ltr" dominant-baseline="text-before-edge">Question?</text></g><g stroke-linecap="round"><g transform="translate(91 167) rotate(0 14.5 0)"><path d="M0.36 -0.55 C5.13 -0.58, 23.86 -0.52, 28.7 -0.48 M-0.12 0.36 C4.83 0.4, 24.88 0.01, 29.78 -0.03" stroke="#1e1e1e" stroke-width="2" fill="none"></path></g><g transform="translate(91 167) rotate(0 14.5 0)"><path d="M16.23 5.13 C19.69 3.1, 23.94 2.42, 29.78 -0.03 M16.23 5.13 C19.38 3.85, 22.99 2.4, 29.78 -0.03" stroke="#1e1e1e" stroke-width="2" fill="none"></path></g><g transform="translate(91 167) rotate(0 14.5 0)"><path d="M16.08 -4.79 C19.56 -3.77, 23.86 -1.39, 29.78 -0.03 M16.08 -4.79 C19.25 -3.69, 22.89 -2.77, 29.78 -0.03" stroke="#1e1e1e" stroke-width="2" fill="none"></path></g></g><mask></mask><g stroke-linecap="round"><g transform="translate(92 70) rotate(0 14 0)"><path d="M-0.3 -0.48 C4.37 -0.45, 23.72 -0.48, 28.39 -0.33 M0.55 0.46 C5.15 0.61, 23.72 0.35, 28.16 0.19" stroke="#1e1e1e" stroke-width="2" fill="none"></path></g><g transform="translate(92 70) rotate(0 14 0)"><path d="M15.11 5.27 C19.29 3.95, 24.24 1.22, 28.16 0.19 M15.11 5.27 C20.18 3.19, 24.4 1.76, 28.16 0.19" stroke="#1e1e1e" stroke-width="2" fill="none"></path></g><g transform="translate(92 70) rotate(0 14 0)"><path d="M14.9 -4.3 C19.11 -2.13, 24.14 -1.36, 28.16 0.19 M14.9 -4.3 C20.04 -2.85, 24.33 -0.76, 28.16 0.19" stroke="#1e1e1e" stroke-width="2" fill="none"></path></g></g><mask></mask></svg>